<svg width="40" height="40" viewBox="0 0 40 40" fill="none" xmlns="http://www.w3.org/2000/svg">
    <g clip-path="url(#clip0_831_5634)">
    <path d="M20 0C16.0444 0 12.1776 1.17298 8.8886 3.37061C5.59962 5.56824 3.03617 8.69181 1.52242 12.3463C0.00866572 16.0009 -0.387401 20.0222 0.384303 23.9018C1.15601 27.7814 3.06082 31.3451 5.85787 34.1421C8.65492 36.9392 12.2186 38.844 16.0982 39.6157C19.9778 40.3874 23.9992 39.9913 27.6537 38.4776C31.3082 36.9638 34.4318 34.4004 36.6294 31.1114C38.827 27.8224 40 23.9556 40 20C39.9941 14.6975 37.885 9.61388 34.1356 5.86444C30.3861 2.115 25.3025 0.00595527 20 0ZM20 26.6667C18.6815 26.6667 17.3925 26.2757 16.2962 25.5431C15.1999 24.8106 14.3454 23.7694 13.8408 22.5512C13.3362 21.3331 13.2042 19.9926 13.4614 18.6994C13.7187 17.4062 14.3536 16.2183 15.286 15.286C16.2183 14.3536 17.4062 13.7187 18.6994 13.4614C19.9926 13.2042 21.3331 13.3362 22.5512 13.8408C23.7694 14.3454 24.8106 15.1999 25.5431 16.2962C26.2757 17.3925 26.6667 18.6815 26.6667 20C26.6667 21.7681 25.9643 23.4638 24.7141 24.714C23.4638 25.9643 21.7681 26.6667 20 26.6667Z" fill="url(#paint0_linear_831_5634)"/>
    <path d="M38.1788 11.6673H19.0376L25.3526 0.729844C24.2142 0.413412 23.0499 0.199229 21.8734 0.0898438L12.3017 16.6673L5.99278 5.73984C5.15002 6.56703 4.38158 7.46667 3.69632 8.42839L13.2642 25.0007H0.632568C0.928324 26.1449 1.32574 27.2605 1.82007 28.334H20.9613L14.6472 39.2715C15.7855 39.5879 16.9499 39.8021 18.1263 39.9115L27.6978 23.334L34.0069 34.2617C34.8497 33.4349 35.6181 32.5356 36.3034 31.5742L26.7355 15.0007H39.3672C39.0711 13.8564 38.6734 12.7408 38.1788 11.6673ZM22.8872 25.0007H17.113L14.2263 20.0007L17.113 15.0007H22.8867L25.7734 20.0007L22.8872 25.0007Z" fill="#004E77"/>
    <path d="M19.9106 18.394C19.0735 18.394 18.3928 19.075 18.3928 19.9118C18.3928 20.7486 19.0735 21.4297 19.9106 21.4297C20.7478 21.4297 21.4285 20.7486 21.4285 19.9118C21.4285 19.075 20.7478 18.394 19.9106 18.394ZM19.9106 19.4654C19.6645 19.4654 19.4642 19.6658 19.4642 19.9118C19.4642 20.0597 19.3442 20.1797 19.1963 20.1797C19.0485 20.1797 18.9285 20.0597 18.9285 19.9118C18.9285 19.37 19.3688 18.9297 19.9106 18.9297C20.0585 18.9297 20.1785 19.0497 20.1785 19.1975C20.1785 19.3454 20.0585 19.4654 19.9106 19.4654ZM19.9106 16.4297C17.9906 16.4297 16.4285 17.9918 16.4285 19.9118C16.4285 21.8318 17.9906 23.394 19.9106 23.394C21.8306 23.394 23.3928 21.8318 23.3928 19.9118C23.3928 17.9918 21.8306 16.4297 19.9106 16.4297ZM19.9106 21.9654C18.7781 21.9654 17.857 21.044 17.857 19.9118C17.857 18.7797 18.7781 17.8583 19.9106 17.8583C21.0431 17.8583 21.9642 18.7797 21.9642 19.9118C21.9642 21.044 21.0431 21.9654 19.9106 21.9654Z" fill="#004E77"/>
    </g>
    <defs>
    <linearGradient id="paint0_linear_831_5634" x1="5.86459" y1="34.1354" x2="34.1354" y2="5.86458" gradientUnits="userSpaceOnUse">
    <stop stop-color="#007DA1"/>
    <stop offset="1" stop-color="#B944FF"/>
    </linearGradient>
    <clipPath id="clip0_831_5634">
    <rect width="40" height="40" fill="white"/>
    </clipPath>
    </defs>
    </svg>
    