<svg width="141" height="140" viewBox="0 0 141 140" fill="none" xmlns="http://www.w3.org/2000/svg">
<g clip-path="url(#clip0_731_3213)">
<path d="M102.309 140C101.329 140 100.326 139.878 99.3343 139.615L9.1335 115.459C2.95017 113.756 -0.736497 107.351 0.88517 101.168L12.266 58.7475C12.686 57.19 14.2843 56.2858 15.836 56.6825C17.3935 57.0967 18.3152 58.7008 17.901 60.2525L6.526 102.661C5.71517 105.753 7.57017 108.973 10.6677 109.83L100.834 133.974C103.931 134.791 107.128 132.948 107.933 129.868L112.489 112.986C112.909 111.428 114.507 110.501 116.064 110.927C117.622 111.347 118.538 112.951 118.124 114.503L113.574 131.361C112.203 136.552 107.478 140 102.309 140Z" fill="#B1CD46"/>
<path d="M128.833 105H35.5002C29.066 105 23.8335 99.7673 23.8335 93.3332V23.3332C23.8335 16.899 29.066 11.6665 35.5002 11.6665H128.833C135.268 11.6665 140.5 16.899 140.5 23.3332V93.3332C140.5 99.7673 135.268 105 128.833 105ZM35.5002 17.4998C32.286 17.4998 29.6668 20.119 29.6668 23.3332V93.3332C29.6668 96.5473 32.286 99.1665 35.5002 99.1665H128.833C132.048 99.1665 134.667 96.5473 134.667 93.3332V23.3332C134.667 20.119 132.048 17.4998 128.833 17.4998H35.5002Z" fill="#B1CD46"/>
<path d="M53.0002 52.4998C46.566 52.4998 41.3335 47.2673 41.3335 40.8332C41.3335 34.399 46.566 29.1665 53.0002 29.1665C59.4343 29.1665 64.6668 34.399 64.6668 40.8332C64.6668 47.2673 59.4343 52.4998 53.0002 52.4998ZM53.0002 34.9998C49.786 34.9998 47.1668 37.619 47.1668 40.8332C47.1668 44.0473 49.786 46.6665 53.0002 46.6665C56.2143 46.6665 58.8335 44.0473 58.8335 40.8332C58.8335 37.619 56.2143 34.9998 53.0002 34.9998Z" fill="#B1CD46"/>
<path d="M27.1584 98.7582C26.4117 98.7582 25.665 98.4723 25.0934 97.9065C23.9559 96.769 23.9559 94.9198 25.0934 93.7823L52.6442 66.2315C55.9459 62.9298 61.715 62.9298 65.0167 66.2315L73.2184 74.4332L95.9217 47.1915C97.5725 45.214 99.9992 44.0648 102.583 44.0415H102.648C105.203 44.0415 107.623 45.1498 109.292 47.0923L139.8 82.6873C140.85 83.9065 140.71 85.7498 139.485 86.7998C138.266 87.8498 136.428 87.7157 135.373 86.4848L104.864 50.8898C104.298 50.2365 103.517 49.8748 102.648 49.8748C102.041 49.8223 100.973 50.2423 100.408 50.9248L75.6567 80.6223C75.1317 81.2523 74.3675 81.6315 73.545 81.6665C72.7167 81.7248 71.9292 81.3982 71.3517 80.8148L60.8925 70.3557C59.79 69.259 57.8709 69.259 56.7684 70.3557L29.2175 97.9065C28.6517 98.4723 27.905 98.7582 27.1584 98.7582Z" fill="#B1CD46"/>
</g>
<defs>
<clipPath id="clip0_731_3213">
<rect width="140" height="140" fill="white" transform="translate(0.5)"/>
</clipPath>
</defs>
</svg>
