<svg width="24" height="24" viewBox="0 0 24 24" fill="none" xmlns="http://www.w3.org/2000/svg">
<path d="M22 11.0001H4.41403L9.70703 5.70708C9.80254 5.61483 9.87872 5.50449 9.93113 5.38249C9.98354 5.26048 10.0111 5.12926 10.0123 4.99648C10.0134 4.8637 9.98813 4.73202 9.93785 4.60913C9.88757 4.48623 9.81332 4.37458 9.71943 4.28069C9.62553 4.18679 9.51388 4.11254 9.39098 4.06226C9.26809 4.01198 9.13641 3.98668 9.00363 3.98783C8.87085 3.98898 8.73963 4.01657 8.61763 4.06898C8.49562 4.12139 8.38528 4.19757 8.29303 4.29308L1.29303 11.2931C1.10556 11.4806 1.00024 11.7349 1.00024 12.0001C1.00024 12.2652 1.10556 12.5196 1.29303 12.7071L8.29303 19.7071C8.48163 19.8892 8.73423 19.99 8.99643 19.9878C9.25863 19.9855 9.50944 19.8803 9.69485 19.6949C9.88026 19.5095 9.98543 19.2587 9.9877 18.9965C9.98998 18.7343 9.88919 18.4817 9.70703 18.2931L4.41403 13.0001H22C22.2652 13.0001 22.5196 12.8947 22.7071 12.7072C22.8947 12.5197 23 12.2653 23 12.0001C23 11.7349 22.8947 11.4805 22.7071 11.293C22.5196 11.1054 22.2652 11.0001 22 11.0001Z" fill="white"/>
</svg>
